<svg xmlns="http://www.w3.org/2000/svg" viewBox="0 0 32 32" fill="none">
  <!-- Background circle -->
  <circle cx="16" cy="16" r="15" fill="#6366f1" stroke="#4f46e5" stroke-width="2"/>
  
  <!-- User group icon (simplified) -->
  <!-- Center person -->
  <circle cx="16" cy="11" r="3" fill="white"/>
  <path d="M16 15c-3.5 0-6 2-6 4v2h12v-2c0-2-2.5-4-6-4z" fill="white"/>
  
  <!-- Left person -->
  <circle cx="10" cy="12" r="2.5" fill="white" opacity="0.8"/>
  <path d="M10 15.5c-2.5 0-4.5 1.5-4.5 3v2h6v-1c0-2.5 0.5-3.5 1-4h-2.5z" fill="white" opacity="0.8"/>
  
  <!-- Right person -->
  <circle cx="22" cy="12" r="2.5" fill="white" opacity="0.8"/>
  <path d="M22 15.5c2.5 0 4.5 1.5 4.5 3v2h-6v-1c0-2.5-0.5-3.5-1-4h2.5z" fill="white" opacity="0.8"/>
</svg>